<svg viewBox="0 0 800 420" xmlns="http://www.w3.org/2000/svg">
  <defs>
    <style>
      .title { font-size: 17px; font-weight: 700; fill: #1c1b1f; }
      .subtitle { font-size: 12px; fill: #79747e; }
      .label { font-size: 12px; fill: #49454f; }
      .bar-label { font-size: 11px; font-weight: 600; fill: #1c1b1f; }
      .bar-value { font-size: 13px; font-weight: 700; fill: white; }
      .grid-line { stroke: #e8e8e8; stroke-width: 1; }
    </style>
  </defs>

  <!-- Background -->
  <rect width="800" height="420" fill="#ffffff"/>

  <!-- Title -->
  <text x="400" y="30" text-anchor="middle" class="title">GPU vs CPU vs Apple Silicon：速度（Tok/秒）</text>
  <text x="400" y="48" text-anchor="middle" class="subtitle">8Bモデルのトークンスループット（2026年4月）</text>

  <!-- Grid lines -->
  <line x1="100" y1="70" x2="100" y2="320" stroke="#79747e" stroke-width="2"/>
  <line x1="100" y1="320" x2="750" y2="320" stroke="#79747e" stroke-width="2"/>

  <!-- Y-axis labels -->
  <text x="90" y="325" text-anchor="end" class="label">0</text>
  <text x="90" y="270" text-anchor="end" class="label">50</text>
  <text x="90" y="215" text-anchor="end" class="label">100</text>
  <text x="90" y="160" text-anchor="end" class="label">150</text>
  <text x="90" y="105" text-anchor="end" class="label">200</text>

  <!-- Grid lines -->
  <line x1="100" y1="270" x2="750" y2="270" class="grid-line"/>
  <line x1="100" y1="215" x2="750" y2="215" class="grid-line"/>
  <line x1="100" y1="160" x2="750" y2="160" class="grid-line"/>
  <line x1="100" y1="105" x2="750" y2="105" class="grid-line"/>

  <!-- Bar 1: RTX 5090 (200 tok/s) -->
  <rect x="110" y="105" width="80" height="215" fill="#4a1d96"/>
  <text x="150" y="340" text-anchor="middle" class="bar-label">RTX 5090</text>
  <text x="150" y="85" text-anchor="middle" class="bar-value">200</text>

  <!-- Bar 2: RTX 4090 (150 tok/s) -->
  <rect x="210" y="160" width="80" height="160" fill="#6750a4"/>
  <text x="250" y="340" text-anchor="middle" class="bar-label">RTX 4090</text>
  <text x="250" y="140" text-anchor="middle" class="bar-value">150</text>

  <!-- Bar 3: RTX 4070 Ti (80 tok/s) -->
  <rect x="310" y="215" width="80" height="105" fill="#7c3aed"/>
  <text x="350" y="340" text-anchor="middle" class="bar-label">RTX 4070 Ti</text>
  <text x="350" y="195" text-anchor="middle" class="bar-value">80</text>

  <!-- Bar 4: M2 Ultra (60 tok/s) -->
  <rect x="410" y="237" width="80" height="83" fill="#a78bfa"/>
  <text x="450" y="340" text-anchor="middle" class="bar-label">M2 Ultra</text>
  <text x="450" y="219" text-anchor="middle" class="bar-value">60</text>

  <!-- Bar 5: M3 Max (25 tok/s) -->
  <rect x="510" y="292" width="80" height="28" fill="#c4b5fd"/>
  <text x="550" y="340" text-anchor="middle" class="bar-label">M3 Max</text>
  <text x="550" y="276" text-anchor="middle" font-size="12" font-weight="700" fill="#49454f">25</text>

  <!-- Bar 6: Intel i9 CPU (5 tok/s) -->
  <rect x="610" y="314" width="80" height="6" fill="#ddd6fe"/>
  <text x="650" y="340" text-anchor="middle" class="bar-label">Intel i9 CPU</text>
  <text x="650" y="303" text-anchor="middle" font-size="12" fill="#49454f">5</text>

  <!-- Footer -->
  <text x="400" y="378" text-anchor="middle" class="subtitle">高いほど速い。RTX 5090はCPUより40倍速く、RTX 4090は30倍速い。</text>
  <text x="400" y="397" text-anchor="middle" class="subtitle">promptquorum.com/local-llms/gpu-vs-cpu-vs-apple-silicon</text>

  <!-- Corner attribution -->
  <text x="750" y="415" text-anchor="end" font-size="10" fill="#999">promptquorum.com</text>
</svg>
