<svg viewBox="0 0 800 400" xmlns="http://www.w3.org/2000/svg">
  <defs>
    <style>
      .title { font-size: 18px; font-weight: 700; fill: #1c1b1f; }
      .subtitle { font-size: 12px; fill: #79747e; }
      .label { font-size: 12px; fill: #49454f; }
      .bar-label { font-size: 13px; font-weight: 600; fill: #1c1b1f; }
      .bar-value { font-size: 14px; font-weight: 700; fill: white; }
      .grid-line { stroke: #e8e8e8; stroke-width: 1; }
    </style>
  </defs>

  <!-- Background -->
  <rect width="800" height="400" fill="#ffffff"/>

  <!-- Title -->
  <text x="400" y="30" text-anchor="middle" class="title">GPU vs CPU vs Apple Silicon: Speed (tok/sec)</text>
  <text x="400" y="48" text-anchor="middle" class="subtitle">Token throughput for 7B models (April 2026)</text>

  <!-- Grid lines -->
  <line x1="100" y1="70" x2="100" y2="320" stroke="#79747e" stroke-width="2"/>
  <line x1="100" y1="320" x2="750" y2="320" stroke="#79747e" stroke-width="2"/>

  <!-- Y-axis labels -->
  <text x="90" y="325" text-anchor="end" class="label">0</text>
  <text x="90" y="270" text-anchor="end" class="label">50</text>
  <text x="90" y="215" text-anchor="end" class="label">100</text>
  <text x="90" y="160" text-anchor="end" class="label">150</text>

  <!-- Grid lines -->
  <line x1="100" y1="270" x2="750" y2="270" class="grid-line"/>
  <line x1="100" y1="215" x2="750" y2="215" class="grid-line"/>
  <line x1="100" y1="160" x2="750" y2="160" class="grid-line"/>

  <!-- Bar 1: RTX 4090 -->
  <rect x="150" y="110" width="80" height="210" fill="#6750a4"/>
  <text x="190" y="335" text-anchor="middle" class="bar-label">RTX 4090</text>
  <text x="190" y="90" text-anchor="middle" class="bar-value">150</text>

  <!-- Bar 2: RTX 4070 Ti -->
  <rect x="260" y="170" width="80" height="150" fill="#7c3aed"/>
  <text x="300" y="335" text-anchor="middle" class="bar-label">RTX 4070 Ti</text>
  <text x="300" y="150" text-anchor="middle" class="bar-value">80</text>

  <!-- Bar 3: M3 Max -->
  <rect x="370" y="265" width="80" height="55" fill="#a78bfa"/>
  <text x="410" y="335" text-anchor="middle" class="bar-label">M3 Max Mac</text>
  <text x="410" y="245" text-anchor="middle" class="bar-value">25</text>

  <!-- Bar 4: Intel i9 CPU -->
  <rect x="480" y="305" width="80" height="15" fill="#d8b4fe"/>
  <text x="520" y="335" text-anchor="middle" class="bar-label">Intel i9 CPU</text>
  <text x="520" y="295" text-anchor="middle" class="bar-value">5</text>

  <!-- Footer -->
  <text x="400" y="380" text-anchor="middle" class="subtitle">Higher = Faster. RTX 4090 is 30× faster than CPU, 6× faster than M3 Max.</text>
  <text x="400" y="395" text-anchor="middle" class="subtitle">promptquorum.com/local-llms/gpu-vs-cpu-vs-apple-silicon</text>

  <!-- Corner attribution -->
  <text x="750" y="395" text-anchor="end" font-size="10" fill="#999">promptquorum.com</text>
</svg>