<svg xmlns="http://www.w3.org/2000/svg" viewBox="0 0 880 395">
  <defs>
    <style>
      .t { font-family: system-ui, -apple-system, sans-serif; }
    </style>
  </defs>

  <!-- White background -->
  <rect width="880" height="395" fill="#FFFFFF"/>

  <!-- Title -->
  <text x="440" y="30" class="t" font-size="18" font-weight="700" fill="#1C1B1F" text-anchor="middle">Inference Engine Feature Comparison — 2026</text>

  <!-- Column headers -->
  <rect x="20" y="45" width="140" height="38" fill="#F7F2FA" stroke="#E8DEF8" stroke-width="1.5"/>
  <text x="90" y="69" class="t" font-size="13" font-weight="700" fill="#49454F" text-anchor="middle">Feature</text>

  <rect x="160" y="45" width="238" height="38" fill="#6750A4"/>
  <text x="279" y="69" class="t" font-size="14" font-weight="700" fill="#FFFFFF" text-anchor="middle">llama.cpp</text>

  <rect x="398" y="45" width="240" height="38" fill="#7D5260"/>
  <text x="518" y="69" class="t" font-size="14" font-weight="700" fill="#FFFFFF" text-anchor="middle">vLLM</text>

  <rect x="638" y="45" width="222" height="38" fill="#49454F"/>
  <text x="749" y="69" class="t" font-size="13" font-weight="700" fill="#FFFFFF" text-anchor="middle">Text-Generation-WebUI</text>

  <!-- Row 1: Core (y=83) -->
  <rect x="20" y="83" width="140" height="42" fill="#F7F2FA" stroke="#E8DEF8" stroke-width="0.5"/>
  <text x="30" y="109" class="t" font-size="13" font-weight="600" fill="#1C1B1F">Core</text>
  <rect x="160" y="83" width="238" height="42" fill="#FFFFFF" stroke="#E8DEF8" stroke-width="0.5"/>
  <text x="279" y="109" class="t" font-size="13" fill="#1C1B1F" text-anchor="middle">C++ library</text>
  <rect x="398" y="83" width="240" height="42" fill="#FFFFFF" stroke="#E8DEF8" stroke-width="0.5"/>
  <text x="518" y="109" class="t" font-size="13" fill="#1C1B1F" text-anchor="middle">Python framework</text>
  <rect x="638" y="83" width="222" height="42" fill="#FFFFFF" stroke="#E8DEF8" stroke-width="0.5"/>
  <text x="749" y="109" class="t" font-size="13" fill="#1C1B1F" text-anchor="middle">Python web app</text>

  <!-- Row 2: CPU Support (y=125) -->
  <rect x="20" y="125" width="140" height="42" fill="#F7F2FA" stroke="#E8DEF8" stroke-width="0.5"/>
  <text x="30" y="151" class="t" font-size="13" font-weight="600" fill="#1C1B1F">CPU Support</text>
  <rect x="160" y="125" width="238" height="42" fill="#FFFFFF" stroke="#E8DEF8" stroke-width="0.5"/>
  <text x="279" y="151" class="t" font-size="13" font-weight="600" fill="#34A853" text-anchor="middle">✓ Excellent</text>
  <rect x="398" y="125" width="240" height="42" fill="#FFFFFF" stroke="#E8DEF8" stroke-width="0.5"/>
  <text x="518" y="151" class="t" font-size="13" font-weight="600" fill="#E67C73" text-anchor="middle">✗ Poor (GPU required)</text>
  <rect x="638" y="125" width="222" height="42" fill="#FFFFFF" stroke="#E8DEF8" stroke-width="0.5"/>
  <text x="749" y="151" class="t" font-size="13" fill="#49454F" text-anchor="middle">△ Usable (slow)</text>

  <!-- Row 3: GPU Types (y=167) -->
  <rect x="20" y="167" width="140" height="42" fill="#F7F2FA" stroke="#E8DEF8" stroke-width="0.5"/>
  <text x="30" y="193" class="t" font-size="13" font-weight="600" fill="#1C1B1F">GPU Types</text>
  <rect x="160" y="167" width="238" height="42" fill="#FFFFFF" stroke="#E8DEF8" stroke-width="0.5"/>
  <text x="279" y="185" class="t" font-size="12" fill="#1C1B1F" text-anchor="middle">CUDA (NVIDIA)</text>
  <text x="279" y="201" class="t" font-size="12" fill="#49454F" text-anchor="middle">+ Metal (Apple Silicon)</text>
  <rect x="398" y="167" width="240" height="42" fill="#FFFFFF" stroke="#E8DEF8" stroke-width="0.5"/>
  <text x="518" y="185" class="t" font-size="12" fill="#1C1B1F" text-anchor="middle">CUDA only</text>
  <text x="518" y="201" class="t" font-size="12" fill="#E67C73" text-anchor="middle">NVIDIA required</text>
  <rect x="638" y="167" width="222" height="42" fill="#FFFFFF" stroke="#E8DEF8" stroke-width="0.5"/>
  <text x="749" y="185" class="t" font-size="12" fill="#1C1B1F" text-anchor="middle">CUDA (NVIDIA)</text>
  <text x="749" y="201" class="t" font-size="12" fill="#49454F" text-anchor="middle">+ CPU fallback</text>

  <!-- Row 4: Speed (y=209) -->
  <rect x="20" y="209" width="140" height="42" fill="#F7F2FA" stroke="#E8DEF8" stroke-width="0.5"/>
  <text x="30" y="226" class="t" font-size="13" font-weight="600" fill="#1C1B1F">Speed</text>
  <text x="30" y="242" class="t" font-size="11" fill="#49454F">(GPU, 8B model)</text>
  <rect x="160" y="209" width="238" height="42" fill="#FFFFFF" stroke="#E8DEF8" stroke-width="0.5"/>
  <text x="279" y="235" class="t" font-size="13" fill="#1C1B1F" text-anchor="middle">50–150 tok/s</text>
  <rect x="398" y="209" width="240" height="42" fill="#FFFFFF" stroke="#E8DEF8" stroke-width="0.5"/>
  <text x="518" y="224" class="t" font-size="13" fill="#1C1B1F" text-anchor="middle">100–1000+ tok/s</text>
  <text x="518" y="241" class="t" font-size="11" fill="#49454F" text-anchor="middle">with request batching</text>
  <rect x="638" y="209" width="222" height="42" fill="#FFFFFF" stroke="#E8DEF8" stroke-width="0.5"/>
  <text x="749" y="235" class="t" font-size="13" fill="#1C1B1F" text-anchor="middle">50–150 tok/s</text>

  <!-- Row 5: Formats (y=251) -->
  <rect x="20" y="251" width="140" height="42" fill="#F7F2FA" stroke="#E8DEF8" stroke-width="0.5"/>
  <text x="30" y="277" class="t" font-size="13" font-weight="600" fill="#1C1B1F">Formats</text>
  <rect x="160" y="251" width="238" height="42" fill="#FFFFFF" stroke="#E8DEF8" stroke-width="0.5"/>
  <text x="279" y="277" class="t" font-size="13" fill="#1C1B1F" text-anchor="middle">GGUF</text>
  <rect x="398" y="251" width="240" height="42" fill="#FFFFFF" stroke="#E8DEF8" stroke-width="0.5"/>
  <text x="518" y="277" class="t" font-size="13" fill="#1C1B1F" text-anchor="middle">safetensors, AWQ, fp16</text>
  <rect x="638" y="251" width="222" height="42" fill="#FFFFFF" stroke="#E8DEF8" stroke-width="0.5"/>
  <text x="749" y="277" class="t" font-size="13" fill="#1C1B1F" text-anchor="middle">GGUF + safetensors</text>

  <!-- Row 6: Best For (y=293, height 50) -->
  <rect x="20" y="293" width="140" height="50" fill="#6750A4"/>
  <text x="90" y="323" class="t" font-size="13" font-weight="700" fill="#FFFFFF" text-anchor="middle">Best For</text>
  <rect x="160" y="293" width="238" height="50" fill="#EDE7F6" stroke="#E8DEF8" stroke-width="0.5"/>
  <text x="279" y="313" class="t" font-size="12" fill="#1C1B1F" text-anchor="middle">Consumer devices</text>
  <text x="279" y="330" class="t" font-size="12" fill="#1C1B1F" text-anchor="middle">&amp; CLI automation</text>
  <rect x="398" y="293" width="240" height="50" fill="#EDE7F6" stroke="#E8DEF8" stroke-width="0.5"/>
  <text x="518" y="323" class="t" font-size="12" fill="#1C1B1F" text-anchor="middle">Production API servers</text>
  <rect x="638" y="293" width="222" height="50" fill="#EDE7F6" stroke="#E8DEF8" stroke-width="0.5"/>
  <text x="749" y="313" class="t" font-size="12" fill="#1C1B1F" text-anchor="middle">Research &amp;</text>
  <text x="749" y="330" class="t" font-size="12" fill="#1C1B1F" text-anchor="middle">LoRA fine-tuning</text>

  <!-- Footer -->
  <text x="440" y="378" class="t" font-size="11" fill="#79747E" text-anchor="middle">promptquorum.com/local-llms/text-generation-webui-vs-vllm-vs-llamacpp · April 2026</text>
</svg>
