<svg xmlns="http://www.w3.org/2000/svg" viewBox="0 0 800 340" width="800" height="340" font-family="system-ui, -apple-system, sans-serif">
  <!-- Background -->
  <rect width="800" height="340" fill="#FFFFFF"/>

  <!-- Title -->
  <text x="400" y="28" font-size="19" font-weight="700" fill="#1C1B1F" text-anchor="middle">Welche Modellfamilie gewinnt nach Aufgabe?</text>

  <!-- Header row background -->
  <rect x="20" y="38" width="760" height="24" rx="4" fill="#F7F2FA"/>

  <!-- Header labels -->
  <text x="30" y="54" font-size="12" font-weight="700" fill="#6750A4">AUFGABE</text>
  <text x="430" y="54" font-size="12" font-weight="700" fill="#6750A4" text-anchor="middle">GEWINNER</text>
  <text x="570" y="54" font-size="12" font-weight="700" fill="#6750A4">WARUM</text>

  <!-- Divider after header -->
  <line x1="20" y1="62" x2="780" y2="62" stroke="#E8DEF8" stroke-width="1.5"/>

  <!-- Row 1: Python / JS Coding | Qwen2.5 (violet) -->
  <text x="30" y="86" font-size="13" font-weight="600" fill="#1C1B1F">Python / JS Coding</text>
  <rect x="365" y="70" width="130" height="22" rx="11" fill="#E8DEF8" stroke="#6750A4" stroke-width="1.5"/>
  <text x="430" y="85" font-size="12" font-weight="700" fill="#6750A4" text-anchor="middle">Qwen2.5</text>
  <text x="520" y="86" font-size="12" fill="#49454F">87% HumanEval bei 72B — bester bei jeder Größe</text>
  <line x1="20" y1="99" x2="780" y2="99" stroke="#E8DEF8" stroke-width="0.5"/>

  <!-- Row 2: Allgemeines Q&A (Englisch) | Tied: Llama / Qwen (rose) -->
  <text x="30" y="122" font-size="13" font-weight="600" fill="#1C1B1F">Allgemeines Q&amp;A (Englisch)</text>
  <rect x="365" y="106" width="130" height="22" rx="11" fill="#F7EDEF" stroke="#7D5260" stroke-width="1.5"/>
  <text x="430" y="121" font-size="12" font-weight="700" fill="#7D5260" text-anchor="middle">Tied: Llama / Qwen</text>
  <text x="520" y="122" font-size="12" fill="#49454F">Beide: 82–84% MMLU bei 70B</text>
  <line x1="20" y1="135" x2="780" y2="135" stroke="#E8DEF8" stroke-width="0.5"/>

  <!-- Row 3: Mathematisches Schlussfolgern | Qwen2.5 (violet) -->
  <text x="30" y="158" font-size="13" font-weight="600" fill="#1C1B1F">Mathematisches Schlussfolgern</text>
  <rect x="365" y="142" width="130" height="22" rx="11" fill="#E8DEF8" stroke="#6750A4" stroke-width="1.5"/>
  <text x="430" y="157" font-size="12" font-weight="700" fill="#6750A4" text-anchor="middle">Qwen2.5</text>
  <text x="520" y="158" font-size="12" fill="#49454F">83% MATH vs. 77% Llama 3.3 70B</text>
  <line x1="20" y1="171" x2="780" y2="171" stroke="#E8DEF8" stroke-width="0.5"/>

  <!-- Row 4: Nicht-englische Sprachen | Qwen2.5 (violet) -->
  <text x="30" y="194" font-size="13" font-weight="600" fill="#1C1B1F">Nicht-englische Sprachen</text>
  <rect x="365" y="178" width="130" height="22" rx="11" fill="#E8DEF8" stroke="#6750A4" stroke-width="1.5"/>
  <text x="430" y="193" font-size="12" font-weight="700" fill="#6750A4" text-anchor="middle">Qwen2.5</text>
  <text x="520" y="194" font-size="12" fill="#49454F">29 native Sprachen; andere primär Englisch</text>
  <line x1="20" y1="207" x2="780" y2="207" stroke="#E8DEF8" stroke-width="0.5"/>

  <!-- Row 5: Kreatives Schreiben (Englisch) | Llama 3.x (rose) -->
  <text x="30" y="230" font-size="13" font-weight="600" fill="#1C1B1F">Kreatives Schreiben (Englisch)</text>
  <rect x="365" y="214" width="130" height="22" rx="11" fill="#F7EDEF" stroke="#7D5260" stroke-width="1.5"/>
  <text x="430" y="229" font-size="12" font-weight="700" fill="#7D5260" text-anchor="middle">Llama 3.x</text>
  <text x="520" y="230" font-size="12" fill="#49454F">Natürlicherer englischer Generierungsstil</text>
  <line x1="20" y1="243" x2="780" y2="243" stroke="#E8DEF8" stroke-width="0.5"/>

  <!-- Row 6: Qualität mit 16 GB RAM | Mistral Small 3.1 (muted) -->
  <text x="30" y="266" font-size="13" font-weight="600" fill="#1C1B1F">Qualität mit 16 GB RAM</text>
  <rect x="365" y="250" width="130" height="22" rx="11" fill="#F4F4F4" stroke="#79747E" stroke-width="1.5"/>
  <text x="430" y="265" font-size="12" font-weight="700" fill="#79747E" text-anchor="middle">Mistral Small 3.1</text>
  <text x="520" y="266" font-size="12" fill="#49454F">79% MMLU mit nur 14 GB RAM</text>
  <line x1="20" y1="279" x2="780" y2="279" stroke="#E8DEF8" stroke-width="0.5"/>

  <!-- Row 7: Einsteigermodell für Anfänger | Llama 3.2 3B (rose) -->
  <text x="30" y="302" font-size="13" font-weight="600" fill="#1C1B1F">Einsteigermodell für Anfänger</text>
  <rect x="365" y="286" width="130" height="22" rx="11" fill="#F7EDEF" stroke="#7D5260" stroke-width="1.5"/>
  <text x="430" y="301" font-size="12" font-weight="700" fill="#7D5260" text-anchor="middle">Llama 3.2 3B</text>
  <text x="520" y="302" font-size="12" fill="#49454F">Beste Dokumentation, breiteste Community</text>
  <line x1="20" y1="315" x2="780" y2="315" stroke="#E8DEF8" stroke-width="0.5"/>

  <!-- Footer -->
  <text x="400" y="330" font-size="11" fill="#79747E" text-anchor="middle">Benchmark-Daten: April 2026 | Alle Modelle lokal via Ollama</text>
</svg>
