<svg xmlns="http://www.w3.org/2000/svg" viewBox="0 0 800 360" width="800" height="360" style="font-family:system-ui,sans-serif;background:#fff">

  <!-- Title -->
  <text x="400" y="28" text-anchor="middle" font-size="19" font-weight="700" fill="#1C1B1F">Qwen2.5 vs Llama 3.x vs Mistral — Benchmark Comparison</text>

  <!-- Legend -->
  <rect x="155" y="42" width="12" height="12" fill="#6750A4" rx="2"/>
  <text x="173" y="53" font-size="12" fill="#49454F">Qwen2.5 72B</text>
  <rect x="295" y="42" width="12" height="12" fill="#7D5260" rx="2"/>
  <text x="313" y="53" font-size="12" fill="#49454F">Llama 3.3 70B</text>
  <rect x="440" y="42" width="12" height="12" fill="#79747E" rx="2"/>
  <text x="458" y="53" font-size="12" fill="#49454F">Mistral Small 3.1 (24B, 14 GB)</text>

  <!-- MMLU Section -->
  <text x="20" y="72" font-size="13" font-weight="700" fill="#6750A4">MMLU Score (General Knowledge)</text>

  <!-- MMLU Row 1: Qwen -->
  <text x="235" y="96" text-anchor="end" font-size="12" fill="#49454F">Qwen2.5 72B</text>
  <rect x="240" y="83" width="235" height="18" fill="#6750A4" rx="3"/>
  <text x="481" y="96" font-size="13" font-weight="700" fill="#6750A4">84%</text>

  <!-- MMLU Row 2: Llama -->
  <text x="235" y="116" text-anchor="end" font-size="12" fill="#49454F">Llama 3.3 70B</text>
  <rect x="240" y="103" width="230" height="18" fill="#7D5260" rx="3"/>
  <text x="476" y="116" font-size="13" font-weight="700" fill="#7D5260">82%</text>

  <!-- MMLU Row 3: Mistral -->
  <text x="235" y="136" text-anchor="end" font-size="12" fill="#49454F">Mistral Small 3.1</text>
  <rect x="240" y="123" width="221" height="18" fill="#79747E" rx="3"/>
  <text x="467" y="136" font-size="13" font-weight="700" fill="#79747E">79%</text>

  <!-- Divider 1 -->
  <line x1="20" y1="150" x2="780" y2="150" stroke="#E8DEF8" stroke-width="1"/>

  <!-- HumanEval Section -->
  <text x="20" y="168" font-size="13" font-weight="700" fill="#6750A4">HumanEval Score (Coding)</text>

  <!-- HumanEval Row 1: Qwen -->
  <text x="235" y="192" text-anchor="end" font-size="12" fill="#49454F">Qwen2.5 72B</text>
  <rect x="240" y="179" width="244" height="18" fill="#6750A4" rx="3"/>
  <text x="490" y="192" font-size="13" font-weight="700" fill="#6750A4">87%</text>

  <!-- HumanEval Row 2: Llama -->
  <text x="235" y="212" text-anchor="end" font-size="12" fill="#49454F">Llama 3.3 70B</text>
  <rect x="240" y="199" width="246" height="18" fill="#7D5260" rx="3"/>
  <text x="492" y="212" font-size="13" font-weight="700" fill="#7D5260">88%</text>

  <!-- HumanEval Row 3: Mistral -->
  <text x="235" y="232" text-anchor="end" font-size="12" fill="#49454F">Mistral Small 3.1</text>
  <rect x="240" y="219" width="207" height="18" fill="#79747E" rx="3"/>
  <text x="453" y="232" font-size="13" font-weight="700" fill="#79747E">74%</text>

  <!-- Divider 2 -->
  <line x1="20" y1="246" x2="780" y2="246" stroke="#E8DEF8" stroke-width="1"/>

  <!-- MATH Section -->
  <text x="20" y="264" font-size="13" font-weight="700" fill="#6750A4">MATH Score (Mathematical Reasoning)</text>

  <!-- MATH Row 1: Qwen -->
  <text x="235" y="288" text-anchor="end" font-size="12" fill="#49454F">Qwen2.5 72B</text>
  <rect x="240" y="275" width="232" height="18" fill="#6750A4" rx="3"/>
  <text x="478" y="288" font-size="13" font-weight="700" fill="#6750A4">83%</text>

  <!-- MATH Row 2: Llama -->
  <text x="235" y="308" text-anchor="end" font-size="12" fill="#49454F">Llama 3.3 70B</text>
  <rect x="240" y="295" width="216" height="18" fill="#7D5260" rx="3"/>
  <text x="462" y="308" font-size="13" font-weight="700" fill="#7D5260">77%</text>

  <!-- MATH Row 3: Mistral -->
  <text x="235" y="328" text-anchor="end" font-size="12" fill="#49454F">Mistral Small 3.1</text>
  <rect x="240" y="315" width="182" height="18" fill="#79747E" rx="3"/>
  <text x="428" y="328" font-size="13" font-weight="700" fill="#79747E">65%</text>

  <!-- Footer -->
  <text x="400" y="351" text-anchor="middle" font-size="11" fill="#79747E">70B-scale Q4_K_M quantization via Ollama | April 2026</text>

</svg>
