<svg viewBox="0 0 900 380" xmlns="http://www.w3.org/2000/svg">
  <rect width="900" height="380" fill="#FFFFFF"/>
  <text x="450" y="30" font-family="system-ui, -apple-system, sans-serif" font-size="22" font-weight="700" fill="#1C1B1F" text-anchor="middle">
    按模型大小和量化级别的RAM需求
  </text>
  <text x="100" y="55" font-family="system-ui, -apple-system, sans-serif" font-size="14" font-weight="600" fill="#49454F">FP16</text>
  <rect x="160" y="45" width="15" height="15" fill="#6750A4"/>
  <text x="240" y="55" font-family="system-ui, -apple-system, sans-serif" font-size="14" font-weight="600" fill="#49454F">Q8_0</text>
  <rect x="310" y="45" width="15" height="15" fill="#7D5260"/>
  <text x="390" y="55" font-family="system-ui, -apple-system, sans-serif" font-size="14" font-weight="600" fill="#49454F">Q4_K_M</text>
  <rect x="510" y="45" width="15" height="15" fill="#34A853"/>
  <text x="620" y="55" font-family="system-ui, -apple-system, sans-serif" font-size="14" font-weight="600" fill="#49454F">Q3_K_S</text>
  <rect x="750" y="45" width="15" height="15" fill="#F4B400"/>
  <text x="40" y="200" font-family="system-ui, -apple-system, sans-serif" font-size="14" font-weight="600" fill="#49454F" text-anchor="middle">RAM (GB)</text>
  <line x1="80" y1="310" x2="850" y2="310" stroke="#E8DEF8" stroke-width="1"/>
  <text x="70" y="315" font-family="system-ui, -apple-system, sans-serif" font-size="13" fill="#79747E" text-anchor="end">0</text>
  <line x1="80" y1="260" x2="850" y2="260" stroke="#E8DEF8" stroke-width="1" stroke-dasharray="2,2"/>
  <text x="70" y="265" font-family="system-ui, -apple-system, sans-serif" font-size="13" fill="#79747E" text-anchor="end">40</text>
  <line x1="80" y1="210" x2="850" y2="210" stroke="#E8DEF8" stroke-width="1" stroke-dasharray="2,2"/>
  <text x="70" y="215" font-family="system-ui, -apple-system, sans-serif" font-size="13" fill="#79747E" text-anchor="end">80</text>
  <line x1="80" y1="160" x2="850" y2="160" stroke="#E8DEF8" stroke-width="1" stroke-dasharray="2,2"/>
  <text x="70" y="165" font-family="system-ui, -apple-system, sans-serif" font-size="13" fill="#79747E" text-anchor="end">120</text>
  <line x1="80" y1="110" x2="850" y2="110" stroke="#E8DEF8" stroke-width="1" stroke-dasharray="2,2"/>
  <text x="70" y="115" font-family="system-ui, -apple-system, sans-serif" font-size="13" fill="#79747E" text-anchor="end">160</text>
  <text x="150" y="330" font-family="system-ui, -apple-system, sans-serif" font-size="14" font-weight="600" fill="#1C1B1F" text-anchor="middle">3B</text>
  <rect x="120" y="280" width="12" height="30" fill="#6750A4"/><text x="126" y="275" font-family="system-ui, -apple-system, sans-serif" font-size="12" fill="#1C1B1F" text-anchor="middle">6</text>
  <rect x="135" y="291" width="12" height="19" fill="#7D5260"/><text x="141" y="278" font-family="system-ui, -apple-system, sans-serif" font-size="12" fill="#1C1B1F" text-anchor="middle">3.8</text>
  <rect x="150" y="305" width="12" height="5" fill="#34A853"/><text x="156" y="300" font-family="system-ui, -apple-system, sans-serif" font-size="12" fill="#1C1B1F" text-anchor="middle">2</text>
  <rect x="165" y="307" width="12" height="3" fill="#F4B400"/><text x="171" y="298" font-family="system-ui, -apple-system, sans-serif" font-size="12" fill="#1C1B1F" text-anchor="middle">1.6</text>
  <text x="280" y="330" font-family="system-ui, -apple-system, sans-serif" font-size="14" font-weight="600" fill="#1C1B1F" text-anchor="middle">7B</text>
  <rect x="250" y="210" width="12" height="100" fill="#6750A4"/><text x="256" y="200" font-family="system-ui, -apple-system, sans-serif" font-size="12" fill="#1C1B1F" text-anchor="middle">14</text>
  <rect x="265" y="252" width="12" height="58" fill="#7D5260"/><text x="271" y="242" font-family="system-ui, -apple-system, sans-serif" font-size="12" fill="#1C1B1F" text-anchor="middle">7.7</text>
  <rect x="280" y="277" width="12" height="33" fill="#34A853"/><text x="286" y="267" font-family="system-ui, -apple-system, sans-serif" font-size="12" fill="#1C1B1F" text-anchor="middle">4.5</text>
  <rect x="295" y="287" width="12" height="23" fill="#F4B400"/><text x="301" y="277" font-family="system-ui, -apple-system, sans-serif" font-size="12" fill="#1C1B1F" text-anchor="middle">3.3</text>
  <text x="410" y="330" font-family="system-ui, -apple-system, sans-serif" font-size="14" font-weight="600" fill="#1C1B1F" text-anchor="middle">13B</text>
  <rect x="380" y="116" width="12" height="194" fill="#6750A4"/><text x="386" y="100" font-family="system-ui, -apple-system, sans-serif" font-size="12" fill="#1C1B1F" text-anchor="middle">26</text>
  <rect x="395" y="206" width="12" height="104" fill="#7D5260"/><text x="401" y="190" font-family="system-ui, -apple-system, sans-serif" font-size="12" fill="#1C1B1F" text-anchor="middle">14</text>
  <rect x="410" y="246" width="12" height="64" fill="#34A853"/><text x="416" y="236" font-family="system-ui, -apple-system, sans-serif" font-size="12" fill="#1C1B1F" text-anchor="middle">8.5</text>
  <rect x="425" y="265" width="12" height="45" fill="#F4B400"/><text x="431" y="255" font-family="system-ui, -apple-system, sans-serif" font-size="12" fill="#1C1B1F" text-anchor="middle">6</text>
  <text x="540" y="330" font-family="system-ui, -apple-system, sans-serif" font-size="14" font-weight="600" fill="#1C1B1F" text-anchor="middle">34B</text>
  <rect x="510" y="60" width="12" height="250" fill="#6750A4"/><text x="516" y="35" font-family="system-ui, -apple-system, sans-serif" font-size="12" fill="#1C1B1F" text-anchor="middle">68</text>
  <rect x="525" y="140" width="12" height="170" fill="#7D5260"/><text x="531" y="120" font-family="system-ui, -apple-system, sans-serif" font-size="12" fill="#1C1B1F" text-anchor="middle">36</text>
  <rect x="540" y="186" width="12" height="124" fill="#34A853"/><text x="546" y="170" font-family="system-ui, -apple-system, sans-serif" font-size="12" fill="#1C1B1F" text-anchor="middle">22</text>
  <rect x="555" y="220" width="12" height="90" fill="#F4B400"/><text x="561" y="210" font-family="system-ui, -apple-system, sans-serif" font-size="12" fill="#1C1B1F" text-anchor="middle">16</text>
  <text x="670" y="330" font-family="system-ui, -apple-system, sans-serif" font-size="14" font-weight="600" fill="#1C1B1F" text-anchor="middle">70B</text>
  <rect x="640" y="60" width="12" height="250" fill="#6750A4"/><text x="646" y="35" font-family="system-ui, -apple-system, sans-serif" font-size="12" fill="#1C1B1F" text-anchor="middle">140</text>
  <rect x="655" y="80" width="12" height="230" fill="#7D5260"/><text x="661" y="55" font-family="system-ui, -apple-system, sans-serif" font-size="12" fill="#1C1B1F" text-anchor="middle">70</text>
  <rect x="670" y="112" width="12" height="198" fill="#34A853"/><text x="676" y="90" font-family="system-ui, -apple-system, sans-serif" font-size="12" fill="#1C1B1F" text-anchor="middle">40</text>
  <rect x="685" y="144" width="12" height="166" fill="#F4B400"/><text x="691" y="125" font-family="system-ui, -apple-system, sans-serif" font-size="12" fill="#1C1B1F" text-anchor="middle">30</text>
  <text x="450" y="365" font-family="system-ui, -apple-system, sans-serif" font-size="14" font-weight="600" fill="#49454F" text-anchor="middle">模型大小</text>
</svg>