<svg xmlns="http://www.w3.org/2000/svg" width="1200" height="630" viewBox="0 0 1200 630">
  <defs>
    <linearGradient id="bg" x1="0" y1="0" x2="1" y2="1">
      <stop offset="0%" stop-color="#F5F0FF"/>
      <stop offset="100%" stop-color="#EDE7F6"/>
    </linearGradient>
    <marker id="h1" viewBox="0 0 14 14" refX="12" refY="7" markerWidth="14" markerHeight="14" markerUnits="userSpaceOnUse" orient="auto">
      <path d="M0,1 L12,7 L0,13 Z" fill="#21005D"/>
    </marker>
    <marker id="h2" viewBox="0 0 14 14" refX="12" refY="7" markerWidth="14" markerHeight="14" markerUnits="userSpaceOnUse" orient="auto">
      <path d="M0,1 L12,7 L0,13 Z" fill="#4F378B"/>
    </marker>
    <marker id="h3" viewBox="0 0 14 14" refX="12" refY="7" markerWidth="14" markerHeight="14" markerUnits="userSpaceOnUse" orient="auto">
      <path d="M0,1 L12,7 L0,13 Z" fill="#6750A4"/>
    </marker>
    <marker id="h4" viewBox="0 0 14 14" refX="12" refY="7" markerWidth="14" markerHeight="14" markerUnits="userSpaceOnUse" orient="auto">
      <path d="M0,1 L12,7 L0,13 Z" fill="#9A82DB"/>
    </marker>
  </defs>

  <!-- Background -->
  <rect width="1200" height="630" fill="url(#bg)"/>

  <!-- Logo arrows (scaled up, positioned left) -->
  <g transform="translate(80, 140) scale(3.5)">
    <path d="M 25,88 C 12,70 30,48 20,15" stroke="#21005D" stroke-width="8.5" stroke-linecap="round" fill="none" marker-end="url(#h1)"/>
    <path d="M 36,88 C 22,66 43,40 38,10" stroke="#4F378B" stroke-width="8.5" stroke-linecap="round" fill="none" marker-end="url(#h2)"/>
    <path d="M 47,88 C 32,60 57,32 61,9" stroke="#6750A4" stroke-width="8.5" stroke-linecap="round" fill="none" marker-end="url(#h3)"/>
    <path d="M 57,88 C 47,55 70,26 84,11" stroke="#9A82DB" stroke-width="8.5" stroke-linecap="round" fill="none" marker-end="url(#h4)"/>
  </g>

  <!-- Text content (right side) -->
  <text x="520" y="230" font-family="system-ui, -apple-system, sans-serif" font-size="64" font-weight="700" fill="#1C1B1F">PromptQuorum</text>

  <text x="520" y="310" font-family="system-ui, -apple-system, sans-serif" font-size="30" fill="#49454F">AI Prompt Optimizer &amp;</text>
  <text x="520" y="350" font-family="system-ui, -apple-system, sans-serif" font-size="30" fill="#49454F">Multi-AI Comparator</text>

  <text x="520" y="420" font-family="system-ui, -apple-system, sans-serif" font-size="22" fill="#6750A4">From Rough Ideas to Precision Prompts</text>

  <!-- Feature pills -->
  <rect x="520" y="460" width="160" height="36" rx="18" fill="#6750A4" opacity="0.1"/>
  <text x="600" y="484" font-family="system-ui, -apple-system, sans-serif" font-size="16" fill="#6750A4" text-anchor="middle">8+ Frameworks</text>

  <rect x="695" y="460" width="120" height="36" rx="18" fill="#6750A4" opacity="0.1"/>
  <text x="755" y="484" font-family="system-ui, -apple-system, sans-serif" font-size="16" fill="#6750A4" text-anchor="middle">25+ AIs</text>

  <rect x="830" y="460" width="180" height="36" rx="18" fill="#6750A4" opacity="0.1"/>
  <text x="920" y="484" font-family="system-ui, -apple-system, sans-serif" font-size="16" fill="#6750A4" text-anchor="middle">100% Private</text>

  <!-- Bottom bar -->
  <rect x="0" y="590" width="1200" height="40" fill="#6750A4"/>
  <text x="600" y="616" font-family="system-ui, -apple-system, sans-serif" font-size="16" fill="white" text-anchor="middle">www.promptquorum.com</text>
</svg>
